<?xml version="1.0" encoding="utf-8"?>
<!-- Generator: Adobe Illustrator 21.0.0, SVG Export Plug-In . SVG Version: 6.00 Build 0)  -->
<svg version="1.1" id="Capa_1" xmlns="http://www.w3.org/2000/svg" xmlns:xlink="http://www.w3.org/1999/xlink" x="0px" y="0px"
	 viewBox="0 0 8.5 8.5" style="enable-background:new 0 0 8.5 8.5;" xml:space="preserve">
<style type="text/css">
	.st0{fill:#F4623A;}
</style>
<path class="st0" d="M7.3,6.7L7.1,6.1V2.3c0-0.3-0.3-0.4-0.4-0.4H4.5l0,0H3.8C3.6,1.8,3.5,2,3.5,2.1V4h0.7c0.4,0,1,0.3,1,0.8
	s-0.4,1-1,1H2.7l0.1,0.3c0.3,0.5,1,1,1.5,1l0.1,0.1H1.8c-0.1,0-0.3-0.1-0.3-0.3V2.8l0.1,0.3v0.8c0,0.4,0.1,1,0.4,1.4
	c0.1,0.1,0.3,0.1,0.4,0.1h1.6c0.3,0,0.5-0.3,0.5-0.5S4.5,4.5,4.2,4.5H3.1V2.1c0-0.4,0.3-0.7,0.7-0.7h0.4l-0.7-1
	C3.4,0.2,3.2,0.2,2.9,0.3l-1.8,1C1,1.4,1,1.6,1,1.8l0.3,0.5v4.5c0,0.3,0.3,0.4,0.4,0.4h2.7L5,8c0.1,0.3,0.3,0.3,0.5,0.1l1.8-1
	C7.5,7.1,7.5,6.8,7.3,6.7z M4.6,2.3L4.6,2.3c0-0.1,0-0.1,0-0.1h2.1c0.1,0,0.3,0.1,0.3,0.3v3.3L6.7,5.4V3.6c0-0.4-0.4-0.8-0.8-0.8
	c0-0.3-0.3-0.5-0.5-0.5H4.6z"/>
</svg>
